<svg width="135" height="45" viewBox="0 0 135 45" fill="none" xmlns="http://www.w3.org/2000/svg">
<path fill-rule="evenodd" clip-rule="evenodd" d="M0.878678 24.2132L19.9706 43.3051C21.1421 44.4767 23.0416 44.4767 24.2132 43.3051C25.3848 42.1335 25.3848 40.234 24.2132 39.0624L8.375 23.2242V20.9595L24.2132 5.12132C25.3848 3.94975 25.3848 2.05025 24.2132 0.87868C23.0416 -0.292893 21.1421 -0.292893 19.9706 0.87868L0.878677 19.9706C-0.292893 21.1421 -0.292892 23.0416 0.878678 24.2132ZM126.625 20.9595L110.787 5.12132C109.615 3.94975 109.615 2.05025 110.787 0.87868C111.958 -0.292893 113.858 -0.292893 115.029 0.87868L134.121 19.9706C135.293 21.1421 135.293 23.0416 134.121 24.2132L115.029 43.3051C113.858 44.4767 111.958 44.4767 110.787 43.3051C109.615 42.1335 109.615 40.234 110.787 39.0624L126.625 23.2242V20.9595ZM19.125 19.0919V25.0919H29.875L29.875 19.0919L19.125 19.0919ZM40.625 19.0919H51.375L51.375 25.0919H40.625L40.625 19.0919ZM62.125 19.0919L62.125 25.0919H72.875V19.0919H62.125ZM83.625 19.0919H94.375V25.0919H83.625V19.0919ZM105.125 19.0919H115.875V25.0919H105.125V19.0919Z" fill="#666666"/>
</svg>
