<svg width="182" height="182" viewBox="0 0 182 182" fill="none" xmlns="http://www.w3.org/2000/svg">
<circle cx="91" cy="91" r="91" fill="url(#paint0_linear)"/>
<path d="M94.6971 85.7074C90.6321 84.1974 88.4171 83.0399 88.4171 81.1999C88.4171 79.6449 89.6946 78.7574 91.9746 78.7574C96.1421 78.7574 100.422 80.3624 103.37 81.8074L105.035 71.5299C102.697 70.4149 97.9171 68.5874 91.3096 68.5874C86.6346 68.5874 82.7471 69.8099 79.9696 72.0899C77.0821 74.4749 75.5771 77.9249 75.5771 82.0899C75.5771 89.6474 80.1946 92.8699 87.6946 95.5974C92.5346 97.3174 94.1421 98.5424 94.1421 100.432C94.1421 102.262 92.5696 103.32 89.7371 103.32C86.2296 103.32 80.4471 101.597 76.6596 99.3749L74.9746 109.767C78.2346 111.597 84.2371 113.487 90.4671 113.487C95.4071 113.487 99.5271 112.32 102.305 110.097C105.417 107.655 107.03 104.042 107.03 99.3749C107.03 91.6474 102.307 88.4249 94.6921 85.7049H94.6971V85.7074Z" fill="white"/>
<defs>
<linearGradient id="paint0_linear" x1="0" y1="91" x2="182" y2="91" gradientUnits="userSpaceOnUse">
<stop stop-color="#5C48BF"/>
<stop offset="0.0001" stop-color="#5C48BF"/>
<stop offset="1" stop-color="#5DACF8"/>
</linearGradient>
</defs>
</svg>
