<svg width="205" height="40" viewBox="0 0 205 40" fill="none" xmlns="http://www.w3.org/2000/svg">
<path d="M50.2656 23.9877V30.6674H46.3594V11.709H53.7552C55.1789 11.709 56.4289 11.9694 57.5053 12.4902C58.5903 13.0111 59.4237 13.7533 60.0053 14.7168C60.5869 15.6717 60.8777 16.7611 60.8777 17.9851C60.8777 19.8427 60.2396 21.3097 58.9636 22.3861C57.6962 23.4538 55.9384 23.9877 53.6901 23.9877H50.2656ZM50.2656 20.8236H53.7552C54.7882 20.8236 55.5738 20.5805 56.112 20.0944C56.6589 19.6083 56.9323 18.9139 56.9323 18.0111C56.9323 17.0823 56.6589 16.3314 56.112 15.7585C55.5651 15.1856 54.8099 14.8904 53.8464 14.8731H50.2656V20.8236Z" fill="black"/>
<path d="M77.922 11.709V24.196C77.922 26.2707 77.271 27.9113 75.9689 29.1179C74.6755 30.3245 72.9046 30.9278 70.6563 30.9278C68.4428 30.9278 66.685 30.3419 65.3829 29.17C64.0808 27.9981 63.4167 26.3879 63.3907 24.3392V11.709H67.297V24.2221C67.297 25.4634 67.5921 26.3705 68.1824 26.9434C68.7813 27.5077 69.606 27.7898 70.6563 27.7898C72.8525 27.7898 73.968 26.6353 74.0027 24.3262V11.709H77.922Z" fill="black"/>
<path d="M88.1434 23.7273H85.0314V30.6674H81.1251V11.709H88.1694C90.409 11.709 92.1365 12.2081 93.3518 13.2064C94.567 14.2047 95.1747 15.6152 95.1747 17.4382C95.1747 18.7316 94.8926 19.8123 94.3283 20.6804C93.7728 21.5398 92.9264 22.2255 91.7892 22.7377L95.8908 30.4851V30.6674H91.6981L88.1434 23.7273ZM85.0314 20.5632H88.1825C89.1634 20.5632 89.9229 20.3158 90.4611 19.821C90.9993 19.3175 91.2684 18.6274 91.2684 17.7507C91.2684 16.8566 91.0123 16.1534 90.5002 15.6413C89.9967 15.1291 89.2198 14.8731 88.1694 14.8731H85.0314V20.5632Z" fill="black"/>
<path d="M109.563 22.4512H102.063V27.5294H110.865V30.6674H98.1565V11.709H110.839V14.8731H102.063V19.3913H109.563V22.4512Z" fill="black"/>
<path d="M126.815 23.7273H123.703V30.6674H119.797V11.709H126.841C129.081 11.709 130.809 12.2081 132.024 13.2064C133.239 14.2047 133.847 15.6152 133.847 17.4382C133.847 18.7316 133.565 19.8123 133 20.6804C132.445 21.5398 131.598 22.2255 130.461 22.7377L134.563 30.4851V30.6674H130.37L126.815 23.7273ZM123.703 20.5632H126.854C127.835 20.5632 128.595 20.3158 129.133 19.821C129.671 19.3175 129.94 18.6274 129.94 17.7507C129.94 16.8566 129.684 16.1534 129.172 15.6413C128.669 15.1291 127.892 14.8731 126.841 14.8731H123.703V20.5632Z" fill="black"/>
<path d="M148.235 22.4512H140.735V27.5294H149.537V30.6674H136.828V11.709H149.511V14.8731H140.735V19.3913H148.235V22.4512Z" fill="black"/>
<path d="M166.36 14.8731H160.553V30.6674H156.646V14.8731H150.917V11.709H166.36V14.8731Z" fill="black"/>
<path d="M177.74 26.7611H170.891L169.589 30.6674H165.435L172.493 11.709H176.113L183.209 30.6674H179.055L177.74 26.7611ZM171.946 23.5971H176.685L174.303 16.5007L171.946 23.5971Z" fill="black"/>
<path d="M189.133 30.6674H185.227V11.709H189.133V30.6674Z" fill="black"/>
<path d="M196.672 27.5294H204.967V30.6674H192.766V11.709H196.672V27.5294Z" fill="black"/>
<path fill-rule="evenodd" clip-rule="evenodd" d="M38.4231 18.4235L32.1696 12.1701L32.1694 12.1704L27.8308 7.83178L19.7886 15.874L24.1271 20.2126L12.1698 32.1699L18.4232 38.4234C19.2943 39.2944 20.7065 39.2944 21.5776 38.4234L31.9577 28.0432L38.4228 21.5782C38.4229 21.5781 38.423 21.578 38.4231 21.5779M38.4231 18.4235C39.2591 19.2596 39.2927 20.5942 38.5239 21.4703L38.4231 18.4235Z" fill="#234BC5"/>
<path fill-rule="evenodd" clip-rule="evenodd" d="M1.57743 21.5774L12.1694 32.1694L20.2117 24.1272L15.8733 19.7887L27.8311 7.83088L21.5777 1.57745C20.7066 0.706394 19.2944 0.706392 18.4233 1.57745L8.04264 11.9581L8.0425 11.958L1.57743 18.423C0.706373 19.2941 0.706373 20.7064 1.57743 21.5774Z" fill="#4FC3F7"/>
</svg>
