<svg width="300" height="235" viewBox="0 0 300 235" fill="none" xmlns="http://www.w3.org/2000/svg">
<g clip-path="url(#clip0)">
<path opacity="0.1" d="M105.235 230.448C134.137 230.448 157.566 226.005 157.566 220.524C157.566 215.043 134.137 210.599 105.235 210.599C76.3336 210.599 52.9043 215.043 52.9043 220.524C52.9043 226.005 76.3336 230.448 105.235 230.448Z" fill="#BBBBBB"/>
<path opacity="0.1" d="M174.302 33.1412C155.069 32.4749 136.752 26.2572 119.261 19.4565C101.77 12.6558 84.4449 5.1232 65.673 1.52054C53.5992 -0.796945 39.7899 -1.12716 30.0637 5.34632C20.7 11.5937 17.6749 22.3481 16.0494 32.335C14.8251 39.8498 14.1059 47.7601 17.458 54.7959C19.7877 59.6807 23.9183 63.7862 26.7771 68.4658C36.7232 84.7447 29.6922 104.82 18.917 120.715C13.8652 128.17 7.99622 135.292 4.09445 143.22C0.192669 151.148 -1.61112 160.264 1.8033 168.373C5.18504 176.406 13.2471 182.427 21.9808 186.666C39.7186 195.279 60.6123 197.742 81.0008 199.14C126.119 202.228 171.476 200.893 216.713 199.551C233.455 199.057 250.269 198.554 266.738 195.963C275.885 194.523 285.326 192.238 291.967 186.723C300.395 179.723 302.484 167.871 296.835 159.095C287.361 144.369 261.175 140.712 254.545 124.912C250.902 116.214 254.643 106.527 259.942 98.4622C271.305 81.1569 290.351 65.9757 291.352 46.1983C292.041 32.6147 282.886 19.0103 268.729 12.5814C253.891 5.84314 233.313 6.691 222.371 17.8441C211.094 29.3155 191.285 33.7333 174.302 33.1412Z" fill="#BBBBBB"/>
<path d="M159.019 107.616L149.917 101.472L154.508 94.6301L130.467 92.7112L121.829 99.3989L111.015 93.33L101.996 94.4159L101.889 92.0359C101.777 89.5548 101.528 87.0818 101.143 84.6283C101.182 83.8846 101.209 83.0308 101.206 82.1026C101.206 78.1905 100.677 73.0052 98.3528 69.5483L98.8877 64.7348L94.5491 59.6031C95.2458 58.2136 96.0402 56.8755 96.9264 55.5988C97.075 55.3846 97.2235 55.1763 97.384 54.9741C103.015 54.5665 107.458 49.9315 107.458 44.2642C107.458 44.0024 107.458 43.7407 107.428 43.4818C107.428 43.3777 107.407 43.2706 107.396 43.1665C107.945 43.464 108.501 43.7615 109.057 44.059C109.161 44.2077 109.28 44.3565 109.41 44.532L109.437 44.5647L109.603 44.77L109.657 44.8325C109.716 44.9039 109.779 44.9723 109.841 45.0437L109.883 45.0913C110.04 45.2668 110.207 45.4453 110.385 45.6208C110.406 45.6381 110.426 45.657 110.444 45.6773L110.667 45.8856L110.73 45.9421C110.92 46.1117 111.122 46.2753 111.324 46.43L111.389 46.4776L111.645 46.6531L111.728 46.7067C111.826 46.7662 111.927 46.8286 112.025 46.8852L112.061 46.906C112.177 46.9685 112.296 47.028 112.415 47.0845L112.474 47.1083C112.575 47.1519 112.674 47.1936 112.771 47.2332L112.863 47.266C112.967 47.3017 113.068 47.3344 113.175 47.3641L113.241 47.382C113.371 47.4147 113.502 47.4415 113.636 47.4623H113.651C113.777 47.4827 113.904 47.4956 114.031 47.501H114.117C114.231 47.5069 114.345 47.5069 114.459 47.501H114.533C114.676 47.4928 114.818 47.4759 114.958 47.4504C115.623 47.3629 116.262 47.1336 116.831 46.7781C116.975 46.6811 117.104 46.5616 117.211 46.4241C117.805 45.6446 117.151 44.7908 117.151 44.7908C116.92 44.2375 115.416 43.8477 115.416 43.8477C115.416 43.8477 110.661 41.8605 110.661 40.2778C110.661 38.6951 109.473 30.4843 97.2027 28.6071C97.2027 28.6071 89.2209 28.1579 86.9773 32.4359L86.9297 32.9356C86.27 33.3492 85.7233 34.1792 85.0725 34.4231C84.7913 34.4836 84.5201 34.5837 84.2671 34.7206V34.6641C84.192 34.7299 84.1304 34.8097 84.0859 34.8991C83.9461 35.1776 83.8623 35.4808 83.8392 35.7916C83.7723 36.1712 83.6406 36.5365 83.4499 36.8715C83.3968 36.9667 83.3372 37.0581 83.2716 37.1452V37.1452L83.2211 37.2255C83.5661 37.2524 83.9126 37.1963 84.2315 37.0619C84.1812 37.4692 84.0814 37.8688 83.9343 38.2519C84.1232 38.258 84.3099 38.2097 84.4722 38.1126C84.6344 38.0156 84.7654 37.8739 84.8496 37.7045V37.6807L84.8882 37.6271C84.963 37.4894 85.0246 37.345 85.0725 37.1958L85.0398 37.2315C85.0992 37.0381 85.1527 36.8417 85.2181 36.6514C85.248 36.5441 85.2974 36.4433 85.3637 36.3539C85.443 36.2738 85.54 36.2135 85.6468 36.1779C85.7537 36.1422 85.8674 36.1322 85.9788 36.1486L85.857 38.7279H85.9105C85.8389 38.9155 85.7514 39.0966 85.649 39.2693C85.227 39.9535 84.4603 40.4206 84.178 41.1703C84.0563 41.5319 84.0098 41.9146 84.0413 42.2948C84.0413 42.5179 84.068 42.744 84.0859 42.9672V42.9493C84.1275 43.5443 84.1394 44.1095 83.8184 44.5885C83.5985 44.9158 83.2449 45.1627 83.1231 45.5345C83.0894 45.6382 83.0743 45.7469 83.0785 45.8558C83.1023 46.1818 83.1703 46.5031 83.2806 46.8108C83.2818 46.8049 83.2818 46.7988 83.2806 46.7929C83.3547 47.0193 83.372 47.2604 83.3311 47.495C83.1973 48.09 82.4752 48.5868 82.5109 49.1551C82.5089 49.2298 82.5199 49.3043 82.5436 49.3752C82.6825 49.6527 82.9231 49.8659 83.2152 49.9702C83.6733 50.231 84.1995 50.3472 84.7248 50.3034C84.9216 50.2678 85.112 50.2026 85.2894 50.11C85.0814 50.589 84.8674 51.062 84.6505 51.5112C84.6178 51.5826 84.5821 51.654 84.5465 51.7254C84.5465 51.7254 82.71 50.4968 81.6669 53.0017C81.3625 53.5222 81.1447 54.0889 81.0221 54.6795C80.9698 54.9158 80.8962 55.1468 80.8022 55.3697C80.3391 56.1545 79.6461 56.7777 78.8171 57.1547C76.6894 58.1305 68.0954 68.8611 67.9439 71.6397C67.8695 72.7243 67.6863 73.7988 67.3971 74.8467C66.7206 77.3145 66.5467 79.8934 66.886 82.4298C66.9921 83.2496 67.1681 84.0587 67.4119 84.8485C68.3242 87.6241 68.9334 92.8035 68.9334 92.8035L69.92 101.794C69.8834 103.035 69.937 104.276 70.0805 105.509C69.0731 106.661 65.0287 111.459 66.5739 112.765C67.7626 113.795 69.8428 113.625 71.0106 113.414C70.027 115.85 68.4788 120.087 68.2737 122.996C67.9766 127.301 68.7819 133.004 70.0567 135.193C71.3316 137.383 75.581 143 75.581 143C75.581 143 75.3819 150.705 76.9004 153.504C78.4189 156.304 79.0311 162.111 79.0311 162.111C79.0311 162.111 80.4486 167.014 79.7383 168.816C79.0281 170.619 81.0548 172.119 78.9271 173.317C76.7994 174.516 74.0774 201.538 74.0774 201.538C74.0774 201.538 72.9808 219.248 74.0774 220.149C74.136 220.192 74.1987 220.229 74.2646 220.259V226.209C74.2646 226.209 73.5038 227.458 76.5973 227.711C78.7161 227.881 84.7218 228.265 88.2848 228.488L91.0455 228.66C91.0455 228.66 97.5831 229.963 100.472 228.66C103.36 227.357 108.48 227.387 107.719 223.945C107.619 223.477 107.483 223.016 107.315 222.568C106.48 220.432 105.063 220.188 102.451 219.593C102.299 219.56 102.154 219.53 102.02 219.506C99.268 219.027 98.3647 220.31 96.8224 218.641C95.4822 217.198 91.2149 215.582 89.7617 215.071C89.7974 214.964 89.842 214.86 89.8776 214.75C89.4661 214.68 89.0834 214.493 88.7751 214.211L92.7126 214.461L95.0572 214.607C95.0572 214.607 100.614 215.716 103.081 214.607C105.547 213.497 109.886 213.527 109.238 210.602C109.153 210.204 109.038 209.812 108.896 209.43C108.186 207.616 106.979 207.416 104.76 206.913C104.632 206.887 104.513 206.86 104.394 206.839C102.055 206.432 101.289 207.52 99.9783 206.104C98.855 204.896 95.3098 203.543 94.035 203.082C94.035 202.421 93.1435 201.481 92.5818 200.538C91.9221 199.437 93.1405 195.585 93.1405 195.585L93.8359 179.601C94.1007 179.482 94.3808 179.402 94.6679 179.363C94.6679 179.363 97.8119 176.358 97.1017 173.157C96.957 172.189 96.8815 171.211 96.8759 170.232C97.91 169.271 99.3334 167.852 99.7376 166.978C100.397 165.553 99.7376 158.648 99.7376 158.648V132.245L104.997 132.778L109.77 133.269L111.223 133.417L115.995 133.899L126.964 135.009L136.848 133.135L141.124 132.326L149.917 130.66V109.121L159.019 107.616ZM86.6266 36.2438L86.0145 36.1783C86.2165 36.1873 86.4305 36.2259 86.6266 36.2438Z" fill="url(#paint0_linear)"/>
<path d="M137.685 121.601C134.714 125.858 124.031 123.603 124.031 123.603L115.752 115.847L114.637 114.797L116.506 110.823C116.506 110.823 117.101 110.986 118.12 111.278C123.472 112.834 140.193 118.022 137.685 121.601Z" fill="#EFB7B9"/>
<path opacity="0.1" d="M118.114 111.278C117.749 112.551 116.747 114.458 115.752 115.847L114.637 114.797L116.506 110.823C116.506 110.823 117.107 110.986 118.114 111.278Z" fill="black"/>
<path d="M89.7201 66.4573C89.7201 66.4573 82.0889 69.8458 82.4633 78.1667C82.7327 83.5275 83.3161 88.8677 84.2106 94.16C84.2106 94.16 82.6505 106.682 89.1465 109.909C95.6426 113.137 101.654 115.791 101.654 115.791C101.654 115.791 111.817 116.886 113.08 117.338C114.343 117.79 118.29 110.876 117.561 109.799C116.833 108.722 107.505 106.464 106.317 104.668C105.128 102.871 102.379 101.761 102.379 101.761C102.379 101.761 99.5414 100.042 99.3482 98.4886C99.1551 96.9357 99.9039 95.7784 100.094 95.0971C100.284 94.4159 100.766 87.8383 100.766 87.8383C100.766 87.8383 103.969 64.4254 89.7201 66.4573Z" fill="#DCE6F2"/>
<path opacity="0.1" d="M94.7571 93.818C94.7571 93.818 84.2879 95.5732 85.3013 99.2413C85.3013 99.2413 89.102 95.2817 94.7571 93.818Z" fill="black"/>
<path opacity="0.1" d="M94.8372 95.3025C94.8372 95.3025 89.0811 100.006 90.2074 100.247C91.3336 100.488 94.8372 95.3025 94.8372 95.3025Z" fill="black"/>
<path opacity="0.1" d="M97.6038 96.9417C97.6038 96.9417 96.0615 100.104 97.0095 99.8898C97.9574 99.6756 97.6038 96.9417 97.6038 96.9417Z" fill="black"/>
<path opacity="0.1" d="M118.5 111.614L117.865 111.433C118.046 110.838 118.096 110.356 117.948 110.133C117.22 109.056 107.898 106.801 106.712 105.001C105.526 103.201 102.775 102.094 102.775 102.094C102.775 102.094 99.9366 100.375 99.7434 98.8218C99.5503 97.2689 100.299 96.1116 100.489 95.4303C100.68 94.7491 101.161 88.1685 101.161 88.1685C101.161 88.1685 104.355 64.7587 90.1064 66.7905C90.1064 66.7905 82.4752 70.182 82.8466 78.5029C83.1161 83.8638 83.7006 89.2041 84.5969 94.4962C84.5969 94.4962 83.0368 107.018 89.5328 110.246C96.0289 113.473 102.041 116.127 102.041 116.127C102.041 116.127 112.201 117.219 113.467 117.674C113.945 117.847 114.81 116.957 115.657 115.734L116.138 116.184L124.417 123.936C124.417 123.936 135.1 126.194 138.072 121.937C140.583 118.355 123.864 113.167 118.5 111.614Z" fill="black"/>
<path d="M85.328 35.2264C85.0371 35.2833 84.7585 35.391 84.5049 35.5447C84.2077 35.7916 84.2077 36.214 84.1334 36.5829C84.0461 37.0961 83.8428 37.5825 83.5391 38.005C83.8772 38.0298 84.2164 37.9737 84.5286 37.8413C84.4778 38.2485 84.378 38.6481 84.2315 39.0313C84.4166 39.036 84.5992 38.9872 84.7573 38.8906C84.9155 38.7941 85.0424 38.6539 85.123 38.4869C85.2802 38.1517 85.4046 37.802 85.4944 37.4427C85.5223 37.3352 85.5708 37.2342 85.6371 37.1452C85.9104 36.8209 86.4186 36.9667 86.8406 37.0084C87.1917 37.038 87.5444 36.9731 87.8621 36.8203C88.1798 36.6676 88.4509 36.4326 88.6473 36.1397C89.0961 35.4584 89.1228 33.7151 88.053 33.5306C86.9357 33.3462 86.2403 34.8872 85.328 35.2264Z" fill="#965D7B"/>
<g opacity="0.1">
<path opacity="0.1" d="M84.4751 35.9106C84.5019 35.7648 84.5197 35.6131 84.5524 35.4673C84.2701 35.7143 84.2552 36.1337 84.1809 36.5056C84.1435 36.7202 84.0848 36.9304 84.0056 37.1333C84.2396 36.76 84.399 36.3447 84.4751 35.9106V35.9106Z" fill="black"/>
<path opacity="0.1" d="M84.5701 38.3679C84.7181 37.9851 84.8179 37.5854 84.8672 37.1779C84.5697 37.3033 84.2476 37.3592 83.9252 37.3415C83.8314 37.5508 83.7169 37.7501 83.5835 37.9365C83.9205 37.9626 84.2588 37.9075 84.5701 37.7759C84.5207 38.1833 84.4209 38.5831 84.2729 38.9659C84.458 38.9702 84.6404 38.9212 84.7985 38.8247C84.9565 38.7282 85.0836 38.5882 85.1644 38.4214C85.2384 38.2862 85.2982 38.1436 85.3427 37.996C85.2555 38.118 85.139 38.216 85.004 38.281C84.8689 38.346 84.7197 38.3759 84.5701 38.3679V38.3679Z" fill="black"/>
<path opacity="0.1" d="M87.1792 36.3448C86.7573 36.3031 86.2461 36.1573 85.9727 36.4816C85.9077 36.5714 85.8593 36.6721 85.8301 36.7791C85.8034 36.8565 85.7796 36.9368 85.7588 37.0171C86.0411 36.794 86.4987 36.913 86.8821 36.9517C87.2331 36.9804 87.5855 36.915 87.903 36.7624C88.2205 36.6097 88.4917 36.3752 88.6888 36.083C88.7789 35.9385 88.8461 35.781 88.8879 35.6159C88.6844 35.8681 88.4222 36.0664 88.1243 36.1935C87.8264 36.3205 87.5019 36.3725 87.1792 36.3448Z" fill="black"/>
</g>
<path d="M94.2727 59.7964L98.8044 65.2525L98.2131 70.7591L92.7363 62.1764L94.2727 59.7964Z" fill="#DCE6F2"/>
<path opacity="0.1" d="M98.8015 65.2525L98.2458 70.4319L98.2101 70.7591L93.2682 63.0124L92.7363 62.1764L92.8909 61.9354L94.2697 59.7964L94.5758 60.1653L98.8015 65.2525Z" fill="black"/>
<path d="M101.155 52.4097C99.6215 52.85 98.1565 54.3613 96.8817 56.1968C96.02 57.4633 95.2494 58.7895 94.5757 60.1654C94.1566 61.0043 93.7882 61.8105 93.4821 62.5126L93.2681 63.0124C92.7511 64.2351 92.4628 65.0532 92.4628 65.0532C92.4628 65.0532 80.7248 56.2176 82.5821 55.6226C83.2061 55.4233 84.0263 54.0846 84.8376 52.3978L84.9386 52.1836C85.4527 51.1007 85.9579 49.8929 86.4066 48.7565C87.3248 46.4211 88.0053 44.3922 88.0053 44.3922C88.0053 44.3922 105.835 51.071 101.155 52.4097Z" fill="#EFB7B9"/>
<path d="M108.177 43.8954C108.177 43.8954 110.887 48.804 114.527 48.1347C118.168 47.4653 116.67 45.4989 116.67 45.4989L108.177 43.8954Z" fill="#444053"/>
<path d="M102.926 213.809C100.525 214.907 95.0958 213.809 95.0958 213.809L92.8076 213.667C89.836 213.476 84.8614 213.155 83.1022 213.012C80.5347 212.801 81.1647 211.748 81.1647 211.748V205.384L93.6219 202.225C93.6219 202.225 98.5459 203.912 99.895 205.384C101.176 206.789 101.925 205.709 104.21 206.113C104.323 206.134 104.442 206.158 104.566 206.188C106.736 206.684 107.913 206.881 108.608 208.681C108.748 209.059 108.86 209.446 108.944 209.841C109.586 212.738 105.324 212.718 102.926 213.809Z" fill="#A36468"/>
<path opacity="0.1" d="M108.608 208.681C108.162 208.96 107.692 209.201 107.205 209.401C105.571 210.147 104.017 211.058 102.364 211.763C100.712 212.468 98.9322 212.971 97.1433 212.837C96.2072 212.768 95.2503 212.539 94.3559 212.807C93.8027 213.021 93.2817 213.31 92.8076 213.667C89.836 213.476 84.8614 213.155 83.1022 213.012C80.5347 212.801 81.1647 211.748 81.1647 211.748V211.004C81.2568 211.004 81.3608 210.977 81.4797 210.968C82.0947 210.959 82.7071 211.05 83.2924 211.239C84.5821 211.59 85.8659 211.935 87.1556 212.28C87.2616 211.88 87.4481 211.505 87.7035 211.178C87.9589 210.852 88.278 210.581 88.6414 210.382C89.3775 209.991 90.2037 209.801 91.0365 209.832C93.0365 209.859 94.9294 210.808 96.9263 210.903C97.4846 210.954 98.0467 210.86 98.5578 210.629C98.8312 210.492 99.0719 210.293 99.3393 210.141C99.7673 209.934 100.22 209.781 100.685 209.686C101.995 209.36 103.281 208.944 104.534 208.443C104.89 208.303 105.306 208.05 105.259 207.669C105.196 207.163 104.403 207.104 104.195 206.64C104.158 206.556 104.141 206.465 104.145 206.374C104.15 206.282 104.175 206.193 104.219 206.113C104.332 206.134 104.451 206.158 104.575 206.188C106.736 206.684 107.913 206.881 108.608 208.681Z" fill="black"/>
<path d="M100.388 227.732C97.5652 229.023 91.1761 227.732 91.1761 227.732L88.4868 227.575C85.004 227.351 79.138 226.98 77.0668 226.804C74.0446 226.554 74.7875 225.317 74.7875 225.317V217.817L89.4467 214.098C89.4467 214.098 95.2414 216.082 96.8282 217.817C98.3349 219.468 99.2056 218.198 101.907 218.673C102.041 218.697 102.18 218.727 102.326 218.76C104.878 219.355 106.263 219.578 107.08 221.696C107.246 222.141 107.378 222.597 107.476 223.062C108.213 226.471 103.211 226.444 100.388 227.732Z" fill="#A36468"/>
<path opacity="0.1" d="M107.074 221.696C106.549 222.024 105.998 222.308 105.425 222.544C103.503 223.422 101.672 224.492 99.7286 225.322C97.7851 226.152 95.6901 226.742 93.5832 226.587C92.4837 226.507 91.3574 226.23 90.3144 226.551C89.6608 226.806 89.0458 227.15 88.4868 227.575C85.004 227.351 79.138 226.98 77.0668 226.804C74.0446 226.554 74.7875 225.317 74.7875 225.317V224.442C74.9105 224.422 75.0345 224.408 75.1589 224.4C75.8829 224.387 76.604 224.495 77.2926 224.719L81.8363 225.944C81.9628 225.471 82.1844 225.03 82.4874 224.645C82.7904 224.261 83.1684 223.943 83.5984 223.71C84.4646 223.248 85.4377 223.024 86.4185 223.062C88.7721 223.094 90.9979 224.21 93.3484 224.323C94.0031 224.383 94.662 224.273 95.2622 224.005C95.5861 223.841 95.8565 223.606 96.1834 223.43C96.686 223.184 97.2184 223.004 97.7673 222.895C99.2998 222.508 100.805 222.019 102.272 221.431C102.691 221.265 103.182 220.967 103.125 220.521C103.051 219.926 102.118 219.855 101.871 219.307C101.83 219.208 101.811 219.101 101.816 218.994C101.821 218.887 101.85 218.783 101.901 218.688C102.035 218.712 102.174 218.742 102.32 218.775C104.872 219.346 106.257 219.578 107.074 221.696Z" fill="black"/>
<path d="M93.9993 176.269L93.2059 194.96C93.2059 194.96 92.0172 198.777 92.6621 199.869C93.3069 200.961 94.3946 202.049 93.9993 202.695C93.6041 203.341 88.8495 210.32 87.3131 207.642C85.7768 204.965 84.2612 193.363 84.2612 193.363L85.6787 179.032L93.9993 176.269Z" fill="#444053"/>
<path d="M97.4404 129.699L99.6454 132.65V158.318C99.6454 158.318 100.29 165.16 99.6454 166.573C99.0005 167.986 95.7317 170.813 95.7317 170.813L92.9829 156.682L93.5772 141.732L97.4404 129.699Z" fill="#444053"/>
<path opacity="0.1" d="M93.9993 176.269L93.2059 194.96C93.2059 194.96 92.0172 198.777 92.6621 199.869C93.3069 200.961 94.3946 202.049 93.9993 202.695C93.6041 203.341 88.8495 210.32 87.3131 207.642C85.7768 204.965 84.2612 193.363 84.2612 193.363L85.6787 179.032L93.9993 176.269Z" fill="black"/>
<path opacity="0.1" d="M97.4404 129.699L99.6454 132.65V158.318C99.6454 158.318 100.29 165.16 99.6454 166.573C99.0005 167.986 95.7317 170.813 95.7317 170.813L92.9829 156.682L93.5772 141.732L97.4404 129.699Z" fill="black"/>
<path d="M99.6454 118.751V132.635L97.17 143.443C97.17 143.443 96.3766 169.524 97.069 172.696C97.7614 175.867 94.6916 178.845 94.6916 178.845C94.6916 178.845 92.9086 179.044 92.9086 180.431C92.9086 181.817 89.937 185.785 89.937 185.785L90.0351 193.52C90.0351 193.52 91.3248 207.999 89.3427 210.775C87.3606 213.551 90.0351 213.949 90.0351 213.949C87.5597 222.08 75.6731 220.197 74.6003 219.304C73.5275 218.412 74.6003 200.859 74.6003 200.859C74.6003 200.859 77.257 174.085 79.3371 172.895C81.4173 171.705 79.4382 170.218 80.1305 168.433C80.8229 166.648 79.4381 161.79 79.4381 161.79C79.4381 161.79 78.8438 156.036 77.358 153.26C75.8722 150.485 76.0683 142.848 76.0683 142.848C76.0683 142.848 71.908 137.294 70.6718 135.113C69.4356 132.933 68.6392 127.28 68.9363 123.014C69.1384 120.131 70.651 115.934 71.6108 113.518C72.0714 112.361 72.4043 111.611 72.4043 111.611L72.6866 111.685L88.9177 115.94L99.6454 118.751Z" fill="#444053"/>
<path opacity="0.1" d="M101.155 52.4096C99.6217 52.8499 98.1567 54.3612 96.8819 56.1967H96.549C94.6804 56.1981 92.8446 55.7055 91.227 54.7689C89.6095 53.8323 88.2676 52.4848 87.3369 50.8627C86.948 50.1905 86.635 49.4771 86.4038 48.7356C87.322 46.4003 88.0026 44.3713 88.0026 44.3713C88.0026 44.3713 105.835 51.0709 101.155 52.4096Z" fill="black"/>
<path d="M107.173 44.9722C107.175 46.6 106.805 48.2067 106.089 49.6685C105.374 51.1302 104.333 52.4081 103.047 53.4037C101.76 54.3993 100.263 55.086 98.6694 55.4109C97.0762 55.7358 95.4297 55.6902 93.8568 55.2777C92.2839 54.8652 90.8266 54.0968 89.5971 53.0316C88.3676 51.9665 87.3987 50.633 86.7651 49.1339C86.1315 47.6348 85.85 46.0101 85.9425 44.3849C86.0349 42.7598 86.4987 41.1776 87.2982 39.7601C87.6202 39.1842 87.9964 38.6403 88.4215 38.1358C89.1222 37.3 89.9459 36.5758 90.8642 35.9879C92.4152 35.0012 94.1954 34.4341 96.0309 34.3421C97.8663 34.2501 99.6942 34.6363 101.336 35.4631C102.978 36.2898 104.377 37.5287 105.398 39.0588C106.418 40.5889 107.024 42.3579 107.158 44.1928C107.164 44.4546 107.173 44.7134 107.173 44.9722Z" fill="#EFB7B9"/>
<path opacity="0.1" d="M98.2456 70.4319L98.21 70.7591L93.2681 63.0242C92.7511 64.2469 92.4628 65.0651 92.4628 65.0651C92.4628 65.0651 80.7248 56.2176 82.5821 55.6226C83.2061 55.4233 84.0263 54.0845 84.8376 52.3977L84.9386 52.1835C85.8004 54.7539 90.8076 59.8916 92.8907 61.9503C93.1314 62.1883 93.3305 62.3846 93.4851 62.5274L93.803 62.8249L93.9694 62.9915C94.7272 63.7739 97.9247 67.2249 98.2456 70.4319Z" fill="black"/>
<path d="M101.94 96.6769L101.399 114.101L101.304 117.204C101.304 117.204 94.8967 116.609 88.9178 115.955C84.1037 115.428 79.566 114.86 78.8677 114.527C77.9762 114.107 76.0654 113.783 74.5588 113.578C73.3939 113.42 72.4786 113.337 72.4786 113.337C72.4786 113.337 72.1369 113.438 71.6109 113.533C70.4638 113.741 68.4491 113.911 67.2752 112.89C65.7746 111.584 69.7179 106.839 70.7016 105.7L70.9185 105.453L70.547 102.017L69.5813 93.1069C69.5813 93.1069 68.9869 87.9751 68.0954 85.2233C67.8571 84.4409 67.6851 83.6398 67.5813 82.8285C67.2501 80.3152 67.4198 77.761 68.0806 75.3138C68.3629 74.2739 68.5421 73.2086 68.6155 72.1335C68.764 69.3817 77.159 58.7463 79.2391 57.7794C80.1749 57.3426 80.9278 56.5909 81.3668 55.6553C81.5117 55.3611 81.6205 55.0505 81.6907 54.7301C82.5822 50.8627 84.8377 52.3977 84.8377 52.3977C85.3815 55.4233 93.8002 63.4318 93.8002 63.4318L93.9666 63.5984C94.8016 64.4552 98.5221 68.4773 98.2577 71.9104C98.2048 73.1882 98.3954 74.4644 98.8193 75.6708C100.532 81.0687 101.516 86.6715 101.746 92.3305L101.94 96.6769Z" fill="#DCE6F2"/>
<path opacity="0.1" d="M90.0114 75.9861C90.0114 75.9861 87.9312 81.0435 86.3711 81.8616C84.811 82.6797 90.7543 83.5871 90.0114 75.9861Z" fill="black"/>
<path opacity="0.1" d="M91.5715 85.4315C91.5715 85.4315 86.8169 86.0265 86.8169 86.919C86.8169 87.8115 91.5715 85.4315 91.5715 85.4315Z" fill="black"/>
<path opacity="0.1" d="M96.5488 91.2327C96.5488 91.2327 89.6397 105.959 87.7082 106.405C85.7766 106.851 96.5488 91.2327 96.5488 91.2327Z" fill="black"/>
<path opacity="0.1" d="M93.6693 64.1786L87.9548 66.6656L81.0576 56.2354C81.2025 55.9413 81.3113 55.6306 81.3815 55.3102C82.273 51.4428 84.5285 52.9779 84.5285 52.9779C85.0723 56.0034 93.491 64.012 93.491 64.012L93.6693 64.1786Z" fill="black"/>
<path d="M93.9667 63.5835L88.2522 66.0706L81.355 55.6404C81.4999 55.3462 81.6087 55.0356 81.6789 54.7152C82.5704 50.8478 84.8259 52.3828 84.8259 52.3828C85.3697 55.4084 93.7884 63.4169 93.7884 63.4169L93.9667 63.5835Z" fill="#DCE6F2"/>
<path opacity="0.1" d="M101.303 117.204C101.303 117.204 94.8966 116.609 88.9176 115.955L99.6453 118.766V122.038C99.1758 122.464 98.7687 122.684 98.5042 122.571C97.268 122.05 87.1792 120.414 87.1792 120.414C87.1792 120.414 81.3191 117.439 74.9955 113.869C74.842 113.784 74.6932 113.691 74.5497 113.589C73.8124 113.088 73.177 112.451 72.6776 111.712C71.5097 110.02 70.9392 107.845 70.6925 105.712C70.5539 104.489 70.5022 103.259 70.538 102.029C70.5686 100.634 70.6957 99.2437 70.9184 97.8669C70.3068 92.5341 70.0091 87.1699 70.0269 81.8022C70.1012 73.4723 77.9017 70.4974 77.9017 70.4974C92.2399 69.233 87.7944 92.4376 87.7944 92.4376C87.7944 92.4376 86.9653 98.9825 86.7394 99.6518C86.5136 100.321 85.7023 101.437 85.8123 102.999C85.9222 104.561 88.6621 106.429 88.6621 106.429C88.6621 106.429 91.3366 107.684 92.439 109.544C93.2414 110.915 98.4537 112.774 101.399 114.101L101.303 117.204Z" fill="black"/>
<path opacity="0.1" d="M106.106 38.3679C106.111 38.8579 106.01 39.3432 105.809 39.7899C105.656 40.1545 105.48 40.5083 105.28 40.849C104.967 41.4758 104.523 42.0277 103.978 42.4674C103.292 42.9583 102.424 43.0951 101.601 43.2944C100.778 43.4937 99.9218 43.8121 99.4523 44.5142C99.1978 44.9655 99.0276 45.4595 98.9501 45.9719C98.8713 46.4838 98.6672 46.9683 98.3557 47.382C98.1936 47.584 97.969 47.7263 97.7173 47.7866C97.4655 47.8469 97.2009 47.8218 96.965 47.7152C96.7165 47.5475 96.528 47.3046 96.4271 47.022C96.0884 46.2575 96.0022 45.4096 95.8655 44.5855C95.7288 43.7615 95.5356 42.9136 95.0305 42.2502C94.5253 41.5868 93.6308 41.1495 92.8374 41.4083C92.5718 41.5107 92.3296 41.6657 92.1254 41.864C91.9211 42.0624 91.759 42.3 91.6487 42.5626C91.4291 43.0883 91.2783 43.6403 91.2 44.2048C90.8315 46.2238 90.3967 48.2309 89.8954 50.226C89.8802 50.3078 89.8466 50.3851 89.7974 50.4521C89.7184 50.531 89.6118 50.5758 89.5002 50.5771C88.8346 50.6663 88.1957 50.1993 87.5241 50.2498C87.4549 50.2545 87.3862 50.2654 87.319 50.2826C86.2332 48.3934 85.7537 46.2157 85.9456 44.0445C86.1375 41.8734 86.9915 39.8138 88.3918 38.1448L88.4453 38.1299C88.892 37.9711 89.298 37.7151 89.6339 37.3802C90.0629 36.9505 90.4602 36.4901 90.8226 36.0028L91.0603 35.7053C91.7434 34.8815 92.5214 34.1416 93.3782 33.5009C93.6121 33.3091 93.8804 33.1637 94.1687 33.0725C94.4154 33.0244 94.6683 33.0163 94.9175 33.0487C95.9438 33.172 96.9784 33.2108 98.011 33.1647C98.7305 33.0515 99.4557 32.978 100.183 32.9446C102.064 32.9981 103.669 34.3279 104.858 35.7857C105.497 36.5324 106.067 37.3921 106.106 38.3679Z" fill="black"/>
<path d="M85.9105 40.0428C85.4975 40.7211 84.7516 41.1822 84.4723 41.9259C84.0622 43.0059 84.7546 44.3505 84.1186 45.3144C83.9076 45.6387 83.56 45.8796 83.4411 46.2515C83.239 46.8792 83.7918 47.5486 83.6491 48.1942C83.5065 48.8397 82.6566 49.3841 82.8824 50.0148C83.0159 50.2899 83.25 50.5029 83.5362 50.6098C83.9865 50.8684 84.5047 50.9836 85.022 50.94C85.8333 50.8062 86.4365 50.0089 87.2597 49.9494C87.9283 49.9018 88.5672 50.3659 89.2329 50.2796C89.3444 50.2757 89.4505 50.2301 89.53 50.1517C89.5805 50.0854 89.6142 50.0078 89.6281 49.9256C90.1273 47.9324 90.5632 45.9253 90.9356 43.9043C91.0115 43.3397 91.1614 42.7875 91.3813 42.2621C91.4925 42 91.6549 41.7629 91.8591 41.5646C92.0632 41.3664 92.305 41.2111 92.57 41.1078C93.3634 40.852 94.2549 41.2863 94.7631 41.9497C95.2712 42.6132 95.4644 43.461 95.6011 44.2851C95.7378 45.1091 95.824 45.957 96.1598 46.7216C96.2618 47.0051 96.4512 47.2489 96.7006 47.4177C97.1464 47.6765 97.7466 47.4712 98.0884 47.0845C98.4014 46.6707 98.6058 46.1848 98.6827 45.6714C98.7602 45.1599 98.9304 44.6669 99.1849 44.2167C99.6544 43.5146 100.513 43.1962 101.333 42.9969C102.154 42.7976 103.018 42.6578 103.711 42.1669C104.255 41.7277 104.699 41.1769 105.012 40.5515C105.452 39.784 105.862 38.951 105.827 38.0674C105.788 37.1036 105.217 36.2438 104.608 35.4941C103.42 34.0364 101.812 32.7066 99.9308 32.656C99.203 32.6865 98.4776 32.76 97.7585 32.8761C96.7258 32.9226 95.6911 32.8828 94.665 32.7572C94.4155 32.7273 94.1629 32.7363 93.9162 32.7839C93.6275 32.8722 93.3597 33.0179 93.1287 33.2123C92.271 33.8519 91.492 34.5909 90.8078 35.4138C90.3667 35.9994 89.8882 36.5558 89.3755 37.0798C89.0394 37.4152 88.6335 37.6722 88.1868 37.8324C87.8897 37.9157 87.5925 37.8562 87.3102 37.9484C86.4336 38.2251 86.3177 39.3705 85.9105 40.0428Z" fill="#965D7B"/>
<path opacity="0.1" d="M114.527 48.1317C112.15 48.569 110.18 46.6442 109.089 45.2401C108.754 44.8136 108.45 44.3643 108.177 43.8954L116.337 45.4364L116.667 45.4989C116.667 45.4989 118.168 47.4653 114.527 48.1317Z" fill="black"/>
<g opacity="0.1">
<path opacity="0.1" d="M83.649 47.3433C83.6822 46.9542 83.6232 46.5628 83.4766 46.2009C83.4766 46.2307 83.4499 46.2604 83.441 46.2902C83.3132 46.6888 83.4856 47.1023 83.5955 47.5159C83.6191 47.4603 83.637 47.4025 83.649 47.3433V47.3433Z" fill="black"/>
<path opacity="0.1" d="M84.3561 42.4733C84.3255 42.8847 84.3335 43.298 84.3799 43.7079C84.4103 43.2966 84.4024 42.8832 84.3561 42.4733Z" fill="black"/>
<path opacity="0.1" d="M104.994 39.6917C104.682 40.3185 104.238 40.8705 103.693 41.3101C103.006 41.801 102.142 41.9378 101.315 42.1371C100.489 42.3365 99.6364 42.6548 99.1669 43.3569C98.9129 43.8084 98.7427 44.3023 98.6647 44.8146C98.5873 45.3278 98.383 45.8136 98.0704 46.2277C97.7286 46.6144 97.1283 46.8227 96.6826 46.5609C96.4332 46.3921 96.2438 46.1483 96.1418 45.8647C95.806 45.1002 95.7168 44.2553 95.5831 43.4283C95.4494 42.6012 95.2503 41.7563 94.7451 41.0929C94.2399 40.4295 93.3454 39.9922 92.552 40.251C92.2867 40.3538 92.0447 40.509 91.8405 40.7073C91.6363 40.9056 91.4741 41.1429 91.3633 41.4053C91.1434 41.9307 90.9935 42.4829 90.9176 43.0475C90.5471 45.0684 90.1113 47.0755 89.6101 49.0688C89.5962 49.151 89.5625 49.2286 89.512 49.2949C89.4324 49.3732 89.3264 49.4189 89.2148 49.4228C88.5492 49.5091 87.9103 49.045 87.2417 49.0926C86.4185 49.1521 85.8153 49.9493 85.004 50.0802C84.4865 50.1267 83.9674 50.0113 83.5182 49.75C83.3116 49.6611 83.1263 49.5292 82.9744 49.3633C82.9048 49.463 82.8588 49.5771 82.8398 49.6972C82.8207 49.8173 82.8291 49.9401 82.8644 50.0564C82.9953 50.3334 83.2303 50.5473 83.5182 50.6514C83.9674 50.9127 84.4865 51.0281 85.004 50.9816C85.8153 50.8507 86.4185 50.0535 87.2417 49.994C87.9103 49.9464 88.5492 50.4105 89.2148 50.3242C89.3264 50.3203 89.4324 50.2746 89.512 50.1963C89.5625 50.13 89.5962 50.0524 89.6101 49.9702C90.1093 47.9869 90.5451 45.9798 90.9176 43.9489C90.9935 43.3843 91.1434 42.8321 91.3633 42.3067C91.4741 42.0444 91.6363 41.807 91.8405 41.6087C92.0447 41.4104 92.2867 41.2552 92.552 41.1524C93.3454 40.8936 94.2369 41.3309 94.7451 41.9943C95.2532 42.6578 95.4464 43.5056 95.5831 44.3297C95.7198 45.1537 95.806 46.0016 96.1418 46.7661C96.2438 47.0497 96.4332 47.2935 96.6826 47.4623C97.1283 47.7211 97.7286 47.5158 98.0704 47.1291C98.383 46.715 98.5873 46.2292 98.6647 45.716C98.7427 45.2037 98.9129 44.7098 99.1669 44.2583C99.6364 43.5562 100.495 43.2408 101.315 43.0385C102.136 42.8362 103 42.7024 103.693 42.2115C104.238 41.7719 104.682 41.2199 104.994 40.5931C105.434 39.8286 105.844 38.9956 105.809 38.112C105.803 37.9984 105.791 37.8852 105.773 37.7729C105.63 38.4538 105.366 39.1036 104.994 39.6917V39.6917Z" fill="black"/>
</g>
<path opacity="0.1" d="M105.821 39.781C106.583 41.1375 107.034 42.6464 107.143 44.1988C104.495 42.7114 102.005 41.0781 100.748 40.5099C98.5578 39.5192 90.3679 39.668 87.2893 39.7602C87.6114 39.1843 87.9875 38.6404 88.4126 38.1359C89.1161 37.2994 89.9428 36.5751 90.8642 35.988C92.0845 35.2127 93.4499 34.6946 94.877 34.4655C96.304 34.2364 97.7628 34.3011 99.164 34.6556C100.565 35.01 101.88 35.6468 103.027 36.5271C104.174 37.4073 105.129 38.5125 105.835 39.7751L105.821 39.781Z" fill="black"/>
<path opacity="0.1" d="M115.27 46.8703C113.841 47.3106 111.508 46.4598 109.089 45.2401C108.754 44.8136 108.45 44.3643 108.177 43.8954L116.337 45.4364C116.878 45.8053 117.015 46.3319 115.27 46.8703Z" fill="black"/>
<path d="M97.1818 29.4669C97.1818 29.4669 89.3812 29.0206 87.1882 33.2599L86.8345 37.0173L86.2402 36.9518L86.1213 39.5073C86.1213 39.5073 98.0436 38.9867 100.757 40.2124C103.47 41.4381 111.9 47.6141 115.279 46.5728C118.658 45.5316 114.982 44.5647 114.982 44.5647C114.982 44.5647 110.331 42.5923 110.331 41.0454C110.331 39.4984 109.178 31.3262 97.1818 29.4669Z" fill="#444053"/>
<path opacity="0.1" d="M82.1365 168.754C82.1365 168.754 87.114 173.588 89.2684 173.216C89.2684 173.216 83.1766 172.696 82.1365 168.754Z" fill="black"/>
<path opacity="0.1" d="M81.0964 170.994C81.0964 170.994 81.5422 173.481 82.7308 173.237C83.9195 172.993 81.0964 170.994 81.0964 170.994Z" fill="black"/>
<path opacity="0.1" d="M88.8971 212.56C88.8971 212.56 81.8305 218.064 83.0221 218.212C84.2137 218.361 88.8971 212.56 88.8971 212.56Z" fill="black"/>
<path d="M98.3499 103.329L121.232 99.6012V121.289L99.491 120.149L98.3499 103.329Z" fill="#BBBBBB"/>
<path opacity="0.05" d="M98.3499 103.329L121.232 99.6012V121.289L99.491 120.149L98.3499 103.329Z" fill="black"/>
<path d="M121.231 99.6012L148.672 101.657L147.153 120.53L121.231 121.289V99.6012Z" fill="#BBBBBB"/>
<path opacity="0.1" d="M121.231 99.6012L148.672 101.657L147.153 120.53L121.231 121.289V99.6012Z" fill="black"/>
<path d="M129.668 92.9819L121.231 99.6012L148.672 101.657L153.156 94.8829L129.668 92.9819Z" fill="#BBBBBB"/>
<path d="M90.0647 96.0997L110.664 93.5889L121.231 99.6012L98.3497 103.329L90.0647 96.0997Z" fill="#BBBBBB"/>
<path d="M126.248 105.233V134.884L115.529 133.783L110.866 133.307L109.446 133.159L104.786 132.68L98.3499 132.019V103.329L121.229 104.888L126.248 105.233Z" fill="#BBBBBB"/>
<path d="M148.672 101.657V130.573L140.081 132.225L135.902 133.028L126.248 134.884V105.233L148.672 101.657Z" fill="#BBBBBB"/>
<path opacity="0.05" d="M148.672 101.657V130.573L140.081 132.225L135.902 133.028L126.248 134.884V105.233L148.672 101.657Z" fill="black"/>
<path d="M90.0647 109.57L98.3497 103.329L126.248 105.233L122.141 112.159L90.0647 109.57Z" fill="#BBBBBB"/>
<path opacity="0.1" d="M90.0647 109.57L98.3497 103.329L126.248 105.233L122.141 112.159L90.0647 109.57Z" fill="white"/>
<path d="M148.672 101.657L126.248 105.233L133.546 111.778L157.566 107.744L148.672 101.657Z" fill="#BBBBBB"/>
<path opacity="0.1" d="M148.672 101.657L126.248 105.233L133.546 111.778L157.566 107.744L148.672 101.657Z" fill="white"/>
<path opacity="0.1" d="M140.08 132.225L135.902 133.028V126.849L139.816 125.861L140.08 132.225Z" fill="white"/>
<path opacity="0.1" d="M115.529 129.696V133.783L110.866 133.307V129.696H115.529Z" fill="white"/>
<path opacity="0.1" d="M109.446 130.984V133.159L104.786 132.68V130.984H109.446Z" fill="white"/>
<path opacity="0.1" d="M123.442 127.527C120.248 131.618 109.698 128.791 109.698 128.791L101.859 120.604L100.795 119.495L102.876 115.627C102.876 115.627 103.47 115.824 104.462 116.169C109.716 118.007 126.132 124.085 123.442 127.527Z" fill="black"/>
<path d="M123.145 126.932C119.951 131.023 109.401 128.196 109.401 128.196L101.562 120.009L100.498 118.9L102.578 115.032C102.578 115.032 103.173 115.229 104.165 115.574C109.419 117.412 125.835 123.49 123.145 126.932Z" fill="#EFB7B9"/>
<path opacity="0.1" d="M104.153 115.574C103.719 116.823 102.617 118.674 101.55 120.009L100.486 118.9L102.566 115.032C102.566 115.032 103.164 115.229 104.153 115.574Z" fill="black"/>
<path d="M78.1991 69.3073C78.1991 69.3073 70.3985 72.2823 70.3242 80.6121C70.3065 85.9799 70.6042 91.3441 71.2157 96.6768C71.2157 96.6768 68.987 109.097 75.3018 112.667C81.6165 116.237 87.4855 119.212 87.4855 119.212C87.4855 119.212 97.5743 120.848 98.8135 121.369C100.053 121.89 104.359 115.196 103.69 114.08C103.021 112.965 93.8359 110.213 92.7453 108.354C91.6547 106.494 88.9684 105.242 88.9684 105.242C88.9684 105.242 86.2285 103.37 86.1186 101.809C86.0086 100.247 86.8169 99.1312 87.0457 98.4618C87.2745 97.7925 88.1036 91.2476 88.1036 91.2476C88.1036 91.2476 92.5373 68.0281 78.1991 69.3073Z" fill="#DCE6F2"/>
<path opacity="0.1" d="M81.7651 96.8851C81.7651 96.8851 71.2157 98.0751 72.0329 101.794C72.0329 101.794 76.0417 98.0424 81.7651 96.8851Z" fill="black"/>
<path opacity="0.1" d="M81.7648 98.3726C81.7648 98.3726 75.777 102.761 76.8765 103.058C77.976 103.356 81.7648 98.3726 81.7648 98.3726Z" fill="black"/>
<path opacity="0.1" d="M84.4395 100.158C84.4395 100.158 82.7309 103.234 83.6966 103.073C84.6624 102.912 84.4395 100.158 84.4395 100.158Z" fill="black"/>
<path d="M194.278 33.4354C194.278 33.4354 182.985 32.7542 184.305 40.6854C184.305 40.6854 184.04 42.0866 185.309 42.7232C185.309 42.7232 185.33 42.1282 186.468 42.3335C186.873 42.4018 187.285 42.4217 187.695 42.393C188.251 42.3559 188.779 42.1375 189.199 41.7712V41.7712C189.199 41.7712 192.376 40.4593 193.612 35.2591C193.612 35.2591 194.527 34.1226 194.503 33.8311L192.596 34.6492C192.596 34.6492 193.246 36.0266 192.732 37.172C192.732 37.172 192.673 34.6998 192.304 34.7563C192.23 34.7563 191.315 35.2353 191.315 35.2353C191.315 35.2353 192.435 37.6331 191.588 39.3794C191.588 39.3794 191.909 36.4223 190.964 35.4078L189.621 36.1932C189.621 36.1932 190.932 38.6713 190.043 40.6943C190.043 40.6943 190.272 37.5914 189.339 36.3836L188.12 37.3326C188.12 37.3326 189.354 39.778 188.602 41.4559C188.602 41.4559 188.504 37.8443 187.856 37.5706C187.856 37.5706 186.792 38.5107 186.632 38.8974C186.632 38.8974 187.473 40.6824 186.95 41.6076C186.95 41.6076 186.629 39.2009 186.355 39.189C186.355 39.189 185.294 40.7835 185.184 41.8664C185.236 40.8569 185.55 39.8784 186.097 39.0283C185.485 39.1441 184.921 39.4368 184.474 39.8702C184.474 39.8702 184.638 38.7427 186.358 38.6446C186.358 38.6446 187.25 37.4337 187.47 37.3594C187.47 37.3594 185.758 37.2166 184.721 37.6777C184.721 37.6777 185.633 36.6156 187.785 37.0827L188.973 36.101C188.973 36.101 186.721 35.8035 185.764 36.1337C185.764 36.1337 186.863 35.1936 189.297 35.8779L190.605 35.0954C190.605 35.0954 188.685 34.6789 187.541 34.8307C187.541 34.8307 188.747 34.1792 190.988 34.8842L191.924 34.4648C191.924 34.4648 190.515 34.1881 190.105 34.1435C189.695 34.0988 189.672 33.9858 189.672 33.9858C190.563 33.8373 191.477 33.9403 192.313 34.2833C192.313 34.2833 194.319 33.5604 194.278 33.4354Z" fill="#BBBBBB"/>
<path opacity="0.1" d="M228.588 73.1034C228.588 73.1034 217.296 72.4221 218.616 80.3533C218.616 80.3533 218.351 81.7545 219.62 82.3912C219.62 82.3912 219.641 81.7962 220.782 82.0014C221.187 82.0697 221.599 82.0897 222.009 82.0609C222.558 82.0211 223.08 81.804 223.495 81.4422V81.4422C223.495 81.4422 226.675 80.1272 227.911 74.927C227.911 74.927 228.823 73.7936 228.787 73.502L226.88 74.3172C226.88 74.3172 227.53 75.6946 227.019 76.8399C227.019 76.8399 226.957 74.3677 226.591 74.4243C226.517 74.4243 225.599 74.9032 225.599 74.9032C225.599 74.9032 226.722 77.304 225.875 79.0473C225.875 79.0473 226.196 76.0902 225.248 75.0758L223.92 75.8522C223.92 75.8522 225.23 78.3304 224.342 80.3533C224.342 80.3533 224.571 77.2505 223.638 76.0426L222.422 76.9946C222.422 76.9946 223.652 79.437 222.904 81.1149C222.904 81.1149 222.806 77.5033 222.158 77.2296C222.158 77.2296 221.094 78.1697 220.93 78.5565C220.93 78.5565 221.774 80.3414 221.251 81.2666C221.251 81.2666 220.93 78.8599 220.657 78.848C220.657 78.848 219.596 80.4426 219.486 81.5255C219.539 80.5158 219.855 79.5375 220.401 78.6874C219.789 78.8034 219.224 79.0961 218.776 79.5293C218.776 79.5293 218.942 78.4018 220.663 78.3036C220.663 78.3036 221.54 77.0928 221.774 77.0184C221.774 77.0184 220.063 76.8756 219.026 77.3367C219.026 77.3367 219.938 76.2747 222.086 76.7566L223.275 75.7749C223.275 75.7749 221.02 75.4774 220.066 75.8076C220.066 75.8076 221.165 74.8675 223.599 75.5518L224.906 74.7693C224.906 74.7693 222.984 74.3558 221.84 74.5046C221.84 74.5046 223.049 73.8531 225.29 74.5581L226.226 74.1387C226.226 74.1387 224.817 73.862 224.404 73.8174C223.991 73.7727 223.97 73.6597 223.97 73.6597C224.862 73.5111 225.778 73.6141 226.615 73.9572C226.615 73.9572 228.624 73.2283 228.588 73.1034Z" fill="#BBBBBB"/>
<path opacity="0.1" d="M159.988 66.0617C159.988 66.0617 162.588 55.0276 154.552 54.9889C154.552 54.9889 153.218 54.4891 152.377 55.6315C152.377 55.6315 152.951 55.7535 152.561 56.8423C152.427 57.2273 152.337 57.6266 152.294 58.0323C152.236 58.5853 152.361 59.142 152.648 59.6179V59.6179C152.648 59.6179 153.399 62.9796 158.294 65.0859C158.294 65.0859 159.257 66.1807 159.548 66.1926L159.072 64.1726C159.072 64.1726 157.604 64.5801 156.564 63.8751C156.564 63.8751 159.01 64.235 159.013 63.8751C159.013 63.8007 158.716 62.816 158.716 62.816C158.716 62.816 156.163 63.5121 154.588 62.3787C154.588 62.3787 157.444 63.1998 158.606 62.4412L158.071 60.9775C158.071 60.9775 155.396 61.8491 153.566 60.6264C153.566 60.6264 156.582 61.3821 157.931 60.6681L157.203 59.3056C157.203 59.3056 154.588 60.1028 153.064 59.0765C153.064 59.0765 156.63 59.5941 157.016 59.0051C157.016 59.0051 156.273 57.7943 155.919 57.5682C155.919 57.5682 154.029 58.0977 153.197 57.4224C153.197 57.4224 155.619 57.5146 155.676 57.2588C155.676 57.2588 154.288 55.9409 153.23 55.6434C154.216 55.8681 155.126 56.3459 155.872 57.0297C155.861 56.4062 155.669 55.7994 155.319 55.2834C155.319 55.2834 156.401 55.6404 156.211 57.3659C156.211 57.3659 157.251 58.4369 157.283 58.6808C157.283 58.6808 157.714 57.0178 157.438 55.9141C157.438 55.9141 158.329 56.997 157.489 59.0348L158.249 60.3884C158.249 60.3884 158.939 58.2167 158.763 57.2171C158.763 57.2171 159.503 58.4607 158.413 60.7454L158.962 62.1704C158.962 62.1704 159.696 60.3438 159.744 59.1955C159.744 59.1955 160.181 60.4985 159.102 62.5899L159.358 63.5835C159.358 63.5835 159.869 62.2418 159.982 61.8432C160.095 61.4445 160.211 61.4416 160.211 61.4416C160.206 62.3466 159.95 63.2326 159.471 64C159.471 64 159.86 66.0765 159.988 66.0617Z" fill="#BBBBBB"/>
<path opacity="0.1" d="M135.258 69.822C135.258 69.822 126.188 63.0302 122.946 70.3872C122.946 70.3872 121.957 71.4136 122.667 72.6422C122.667 72.6422 123.006 72.1633 123.855 72.9576C124.156 73.2379 124.49 73.4816 124.848 73.6835C125.333 73.954 125.894 74.0585 126.444 73.9809V73.9809C126.444 73.9809 129.819 74.6325 133.706 70.9703C133.706 70.9703 135.094 70.5241 135.225 70.2623L133.177 69.9023C133.177 69.9023 132.964 71.4106 131.909 72.0859C131.909 72.0859 133.213 69.9856 132.874 69.8339C132.806 69.8012 131.784 69.6851 131.784 69.6851C131.784 69.6851 131.403 72.309 129.739 73.2997C129.739 73.2997 131.632 71.006 131.397 69.6375L129.843 69.5542C129.843 69.5542 129.579 72.3477 127.724 73.5496C127.724 73.5496 129.617 71.0834 129.507 69.5602L127.968 69.6851C127.968 69.6851 127.656 72.4013 126.108 73.3889C126.108 73.3889 128.007 70.3188 127.618 69.7357C127.618 69.7357 126.212 69.935 125.864 70.1671C125.864 70.1671 125.594 72.1127 124.643 72.6065C124.643 72.6065 125.698 70.42 125.484 70.2682C125.484 70.2682 123.722 71.0149 123.029 71.8658C123.628 71.0511 124.429 70.4071 125.353 69.9975C124.778 69.7583 124.146 69.6922 123.534 69.8071C123.534 69.8071 124.289 68.9563 125.781 69.822C125.781 69.822 127.178 69.2954 127.415 69.3609C127.415 69.3609 126.063 68.2988 124.943 68.1144C124.943 68.1144 126.292 67.7276 127.823 69.3043L129.365 69.1467C129.365 69.1467 127.65 67.6592 126.667 67.4093C126.667 67.4093 128.102 67.2278 129.757 69.1377L131.279 69.2062C131.279 69.2062 129.903 67.802 128.866 67.2963C128.866 67.2963 130.23 67.4153 131.715 69.2389L132.729 69.4025C132.729 69.4025 131.704 68.397 131.383 68.1352C131.062 67.8734 131.106 67.7633 131.106 67.7633C131.933 68.1298 132.642 68.7189 133.154 69.465C133.154 69.465 135.219 69.944 135.258 69.822Z" fill="#BBBBBB"/>
<path opacity="0.1" d="M165.453 6.72041C165.453 6.72041 156.383 -0.0743729 153.141 7.28565C153.141 7.28565 152.152 8.31201 152.862 9.54066C152.862 9.54066 153.201 9.06169 154.05 9.856C154.353 10.1349 154.687 10.3775 155.046 10.5789C155.531 10.8497 156.092 10.9541 156.642 10.8764V10.8764C156.642 10.8764 160.018 11.5279 163.904 7.86279C163.904 7.86279 165.292 7.41952 165.42 7.15475L163.373 6.80073C163.373 6.80073 163.162 8.30903 162.104 8.98434C162.104 8.98434 163.411 6.88403 163.072 6.73231C163.004 6.69958 161.982 6.58356 161.982 6.58356C161.982 6.58356 161.59 9.21341 159.925 10.1981C159.925 10.1981 161.815 7.90444 161.584 6.53596L160.029 6.45266C160.029 6.45266 159.762 9.24614 157.911 10.445C157.911 10.445 159.804 7.97881 159.694 6.45564L158.157 6.58059C158.157 6.58059 157.842 9.29969 156.294 10.2874C156.294 10.2874 158.196 7.21723 157.807 6.63414C157.807 6.63414 156.401 6.83346 156.053 7.0655C156.053 7.0655 155.783 9.01112 154.832 9.50496C154.832 9.50496 155.887 7.31837 155.673 7.16368C155.673 7.16368 153.911 7.91336 153.218 8.7642C153.816 7.94868 154.618 7.30448 155.542 6.89593C154.967 6.65498 154.333 6.58876 153.721 6.70553C153.721 6.70553 154.478 5.8547 155.97 6.72041C155.97 6.72041 157.367 6.19087 157.605 6.25929C157.605 6.25929 156.252 5.19724 155.132 5.00981C155.132 5.00981 156.478 4.62605 158.009 6.19979L159.551 6.04212C159.551 6.04212 157.839 4.55465 156.853 4.30178C156.853 4.30178 158.288 4.12328 159.946 6.0332L161.468 6.09864C161.468 6.09864 160.092 4.69447 159.052 4.1917C159.052 4.1917 160.419 4.3107 161.905 6.13434L162.915 6.29797C162.915 6.29797 161.887 5.30433 161.566 5.04849C161.245 4.79264 161.289 4.6796 161.289 4.6796C162.116 5.04569 162.825 5.63488 163.337 6.38127C163.337 6.38127 165.402 6.83346 165.453 6.72041Z" fill="#BBBBBB"/>
<path opacity="0.1" d="M200.108 15.327C200.108 15.327 196.483 4.58442 189.645 8.80587C189.645 8.80587 188.248 9.10336 188.138 10.5046C188.138 10.5046 188.688 10.3023 188.932 11.4327C189.022 11.8349 189.159 12.2252 189.339 12.596C189.584 13.0949 189.985 13.5009 190.48 13.7532V13.7532C190.48 13.7532 192.893 16.2075 198.17 15.3954C198.17 15.3954 199.564 15.8178 199.82 15.672L198.334 14.2113C198.334 14.2113 197.306 15.3329 196.052 15.2883C196.052 15.2883 198.319 14.3006 198.132 13.9823C198.093 13.9198 197.318 13.2445 197.318 13.2445C197.318 13.2445 195.517 15.1871 193.585 15.0592C193.585 15.0592 196.441 14.2441 197.023 12.9767L195.793 12.0277C195.793 12.0277 193.992 14.1756 191.784 14.1102C191.784 14.1102 194.756 13.1552 195.508 11.8344L194.171 11.0639C194.171 11.0639 192.388 13.1255 190.539 13.06C190.539 13.06 193.844 11.6112 193.853 10.9092C193.853 10.9092 192.584 10.2755 192.165 10.2695C192.165 10.2695 190.839 11.7183 189.787 11.5874C189.787 11.5874 191.891 10.3826 191.802 10.1357C191.802 10.1357 189.93 9.7519 188.875 10.0613C189.829 9.72871 190.854 9.65179 191.847 9.83817C191.508 9.31428 191.023 8.90074 190.453 8.6482C190.453 8.6482 191.559 8.37748 192.298 9.93635C192.298 9.93635 193.749 10.2963 193.903 10.4837C193.903 10.4837 193.392 8.84454 192.575 8.05321C192.575 8.05321 193.903 8.50242 194.266 10.6771L195.627 11.4208C195.627 11.4208 195.065 9.21641 194.388 8.4459C194.388 8.4459 195.674 9.11229 195.954 11.6261L197.172 12.5454C197.172 12.5454 196.833 10.6057 196.263 9.60018C196.263 9.60018 197.321 10.4748 197.511 12.822L198.251 13.5301C198.251 13.5301 197.977 12.12 197.864 11.7213C197.751 11.3227 197.844 11.2959 197.844 11.2959C198.316 12.0676 198.566 12.9552 198.566 13.8603C198.566 13.8603 200.004 15.4043 200.108 15.327Z" fill="#BBBBBB"/>
<path opacity="0.1" d="M176.448 15.8564C176.448 15.8564 165.185 14.601 166.115 22.6006C166.115 22.6006 165.779 23.987 167.007 24.6831C167.007 24.6831 167.057 24.0881 168.195 24.3559C168.598 24.4425 169.008 24.4834 169.42 24.4778C169.975 24.4678 170.513 24.2767 170.95 23.9334V23.9334C170.95 23.9334 174.192 22.7821 175.705 17.6503C175.705 17.6503 176.673 16.5645 176.653 16.27L174.706 16.9899C174.706 16.9899 175.301 18.397 174.706 19.5156C174.706 19.5156 174.769 17.0434 174.409 17.0821C174.335 17.0821 173.396 17.5105 173.396 17.5105C173.396 17.5105 174.394 19.9648 173.461 21.6754C173.461 21.6754 173.931 18.7362 173.036 17.6771L171.654 18.3911C171.654 18.3911 172.843 20.9347 171.847 22.91C171.847 22.91 172.234 19.822 171.363 18.5696L170.1 19.4621C170.1 19.4621 171.206 21.964 170.371 23.6032C170.371 23.6032 170.457 19.9916 169.824 19.6852C169.824 19.6852 168.712 20.5777 168.531 20.9466C168.531 20.9466 169.283 22.7613 168.715 23.6686C168.715 23.6686 168.516 21.25 168.255 21.2262C168.255 21.2262 167.114 22.7643 166.947 23.8501C167.05 22.8434 167.415 21.8813 168.005 21.0596C167.388 21.1449 166.81 21.4086 166.341 21.8182C166.341 21.8182 166.561 20.7026 168.284 20.6907C168.284 20.6907 169.221 19.5275 169.473 19.465C169.473 19.465 167.77 19.236 166.709 19.6435C166.709 19.6435 167.675 18.6261 169.797 19.2181L171.048 18.2989C171.048 18.2989 168.787 17.8407 167.83 18.1382C167.83 18.1382 168.977 17.2457 171.372 18.0638L172.718 17.3469C172.718 17.3469 170.819 16.8352 169.669 16.9274C169.669 16.9274 170.908 16.3324 173.11 17.1565L174.067 16.7846C174.067 16.7846 172.674 16.4365 172.263 16.3711C171.853 16.3057 171.839 16.1926 171.839 16.1926C172.737 16.0894 173.646 16.2377 174.466 16.621C174.466 16.621 176.468 15.9814 176.448 15.8564Z" fill="#BBBBBB"/>
<path opacity="0.1" d="M274.988 103.37C274.988 103.37 263.731 102.115 264.661 110.106C264.661 110.106 264.325 111.492 265.553 112.188C265.553 112.188 265.603 111.593 266.741 111.858C267.143 111.948 267.554 111.989 267.966 111.98C268.522 111.971 269.059 111.78 269.496 111.436V111.436C269.496 111.436 272.738 110.284 274.236 105.155C274.236 105.155 275.205 104.067 275.184 103.775L273.237 104.492C273.237 104.492 273.832 105.902 273.237 107.021C273.237 107.021 273.3 104.546 272.94 104.587C272.866 104.587 271.927 105.013 271.927 105.013C271.927 105.013 272.925 107.467 271.992 109.178C271.992 109.178 272.462 106.241 271.567 105.179L270.185 105.896C270.185 105.896 271.374 108.44 270.382 110.415C270.382 110.415 270.765 107.327 269.894 106.072L268.631 106.964C268.631 106.964 269.737 109.466 268.902 111.102C268.902 111.102 268.988 107.491 268.355 107.187C268.355 107.187 267.246 108.08 267.062 108.449C267.062 108.449 267.817 110.263 267.246 111.171C267.246 111.171 267.047 108.752 266.786 108.728C266.786 108.728 265.645 110.266 265.478 111.352C265.581 110.346 265.946 109.383 266.536 108.562C265.919 108.646 265.34 108.909 264.872 109.32C264.872 109.32 265.092 108.202 266.816 108.19C266.816 108.19 267.755 107.027 268.004 106.967C268.004 106.967 266.301 106.735 265.241 107.143C265.241 107.143 266.206 106.128 268.331 106.72L269.579 105.801C269.579 105.801 267.344 105.379 266.373 105.67C266.373 105.67 267.52 104.778 269.915 105.593L271.261 104.879C271.261 104.879 269.362 104.367 268.212 104.459C268.212 104.459 269.451 103.864 271.653 104.688L272.61 104.314C272.61 104.314 271.217 103.965 270.806 103.903C270.396 103.841 270.382 103.724 270.382 103.724C271.28 103.619 272.189 103.767 273.008 104.15C273.008 104.15 275.017 103.498 274.988 103.37Z" fill="#BBBBBB"/>
<path opacity="0.1" d="M292.197 113.896C292.197 113.896 280.94 112.643 281.87 120.631C281.87 120.631 281.537 122.017 282.762 122.714C282.762 122.714 282.812 122.119 283.95 122.386C284.351 122.474 284.761 122.514 285.172 122.505C285.725 122.494 286.259 122.304 286.696 121.964V121.964C286.696 121.964 289.935 120.813 291.433 115.681C291.433 115.681 292.405 114.595 292.381 114.3L290.434 115.017C290.434 115.017 291.029 116.428 290.434 117.546C290.434 117.546 290.497 115.074 290.137 115.113C290.063 115.113 289.124 115.538 289.124 115.538C289.124 115.538 290.122 117.992 289.189 119.703C289.189 119.703 289.659 116.767 288.764 115.708L287.382 116.422C287.382 116.422 288.571 118.965 287.579 120.941C287.579 120.941 287.962 117.853 287.091 116.6L285.828 117.493C285.828 117.493 286.934 119.994 286.102 121.634C286.102 121.634 286.185 118.019 285.552 117.716C285.552 117.716 284.444 118.608 284.259 118.977C284.259 118.977 285.014 120.792 284.444 121.699C284.444 121.699 284.244 119.28 283.983 119.257C283.983 119.257 282.842 120.795 282.678 121.881C282.781 120.874 283.145 119.912 283.733 119.09C283.117 119.175 282.538 119.439 282.069 119.849C282.069 119.849 282.292 118.73 284.016 118.721C284.016 118.721 284.952 117.558 285.204 117.496C285.204 117.496 283.501 117.266 282.441 117.674C282.441 117.674 283.406 116.657 285.531 117.249L286.779 116.329C286.779 116.329 284.545 115.907 283.573 116.198C283.573 116.198 284.72 115.306 287.115 116.124L288.461 115.407C288.461 115.407 286.562 114.895 285.412 114.988C285.412 114.988 286.651 114.393 288.853 115.217L289.81 114.845C289.81 114.845 288.417 114.497 288.009 114.431C287.602 114.366 287.582 114.253 287.582 114.253C288.48 114.15 289.389 114.298 290.208 114.681C290.208 114.681 292.226 114.024 292.197 113.896Z" fill="#BBBBBB"/>
<path opacity="0.1" d="M253.99 25.2395C253.99 25.2395 244.921 18.4477 241.678 25.8047C241.678 25.8047 240.689 26.8311 241.399 28.0597C241.399 28.0597 241.738 27.5808 242.588 28.3751C242.889 28.6554 243.222 28.8991 243.58 29.101C244.066 29.3713 244.626 29.4758 245.176 29.3985V29.3985C245.176 29.3985 248.552 30.05 252.442 26.3878C252.442 26.3878 253.827 25.9416 253.957 25.6798L251.916 25.3109C251.916 25.3109 251.702 26.8192 250.647 27.4945C250.647 27.4945 251.951 25.3942 251.613 25.2425C251.544 25.2097 250.525 25.0937 250.525 25.0937C250.525 25.0937 250.142 27.7176 248.478 28.7083C248.478 28.7083 250.371 26.4146 250.136 25.0461L248.582 24.9628C248.582 24.9628 248.317 27.7563 246.463 28.9582C246.463 28.9582 248.359 26.4919 248.246 24.9688L246.706 25.0937C246.706 25.0937 246.409 27.8098 244.846 28.7975C244.846 28.7975 246.748 25.7274 246.356 25.1443C246.356 25.1443 244.95 25.3436 244.603 25.5756C244.603 25.5756 244.335 27.5213 243.384 28.0151C243.384 28.0151 244.436 25.8285 244.222 25.6768C244.222 25.6768 242.46 26.4235 241.768 27.2743C242.367 26.4597 243.168 25.8157 244.091 25.4061C243.517 25.1669 242.885 25.1007 242.273 25.2157C242.273 25.2157 243.031 24.3648 244.522 25.2305C244.522 25.2305 245.916 24.704 246.154 24.7694C246.154 24.7694 244.802 23.7074 243.681 23.5229C243.681 23.5229 245.03 23.1362 246.561 24.7129L248.103 24.5552C248.103 24.5552 246.392 23.0678 245.405 22.8179C245.405 22.8179 246.84 22.6364 248.495 24.5463L250.02 24.6147C250.02 24.6147 248.641 23.2106 247.604 22.7048C247.604 22.7048 248.971 22.8238 250.454 24.6475L251.467 24.8111C251.467 24.8111 250.442 23.8055 250.121 23.5438C249.8 23.282 249.848 23.1957 249.848 23.1957C250.673 23.5628 251.381 24.1518 251.892 24.8974C251.892 24.8974 253.951 25.3614 253.99 25.2395Z" fill="#BBBBBB"/>
<path opacity="0.1" d="M260.997 74.2725C260.997 74.2725 257.871 63.3753 250.84 67.2873C250.84 67.2873 249.431 67.5045 249.256 68.9146C249.256 68.9146 249.815 68.7391 250.008 69.8785C250.08 70.2879 250.199 70.6873 250.365 71.0685C250.585 71.5811 250.967 72.0074 251.452 72.2823V72.2823C251.452 72.2823 253.752 74.8407 259.06 74.2695C259.06 74.2695 260.432 74.7515 260.694 74.6206L259.288 73.0915C259.288 73.0915 258.21 74.1684 256.962 74.0673C256.962 74.0673 259.268 73.1748 259.089 72.8564C259.054 72.791 258.311 72.08 258.311 72.08C258.311 72.08 256.427 73.9423 254.501 73.7251C254.501 73.7251 257.392 73.0409 258.028 71.8093L256.84 70.8037C256.84 70.8037 254.944 72.8683 252.742 72.7077C252.742 72.7077 255.737 71.8836 256.563 70.6014L255.262 69.7714C255.262 69.7714 253.375 71.7498 251.544 71.601C251.544 71.601 254.911 70.301 254.953 69.6019C254.953 69.6019 253.711 68.9117 253.292 68.8879C253.292 68.8879 251.904 70.2742 250.849 70.0957C250.849 70.0957 253.006 68.986 252.929 68.7361C252.929 68.7361 251.075 68.2691 250.008 68.5279C250.974 68.2411 251.998 68.2113 252.98 68.4416C252.665 67.9033 252.2 67.469 251.642 67.1922C251.642 67.1922 252.76 66.969 253.425 68.5606C253.425 68.5606 254.855 68.9831 255.003 69.1794C255.003 69.1794 254.566 67.5164 253.785 66.6924C253.785 66.6924 255.092 67.1981 255.357 69.3877L256.682 70.1939C256.682 70.1939 256.219 67.9627 255.577 67.1773C255.577 67.1773 256.831 67.9002 257 70.4229L258.189 71.3957C258.189 71.3957 257.936 69.4442 257.413 68.4208C257.413 68.4208 258.433 69.343 258.516 71.6932L259.223 72.437C259.223 72.437 259.015 71.015 258.926 70.6104C258.837 70.2058 258.926 70.1492 258.926 70.1492C259.366 70.9406 259.577 71.8388 259.535 72.7434C259.535 72.7434 260.89 74.3439 260.997 74.2725Z" fill="#BBBBBB"/>
<path opacity="0.1" d="M191.336 98.8277C191.336 98.8277 185.264 89.2544 179.627 94.9841C179.627 94.9841 178.338 95.5791 178.563 96.9922C178.563 96.9922 179.054 96.6649 179.559 97.7061C179.74 98.0751 179.966 98.4208 180.231 98.7355C180.585 99.165 181.07 99.466 181.612 99.5923V99.5923C181.612 99.5923 184.539 101.401 189.472 99.3543C189.472 99.3543 190.925 99.4316 191.139 99.2323L189.356 98.1613C189.356 98.1613 188.622 99.5 187.395 99.7529C187.395 99.7529 189.362 98.2654 189.098 97.9917C189.047 97.9382 188.132 97.4682 188.132 97.4682C188.132 97.4682 186.845 99.7827 184.938 100.119C184.938 100.119 187.52 98.6462 187.787 97.2837L186.364 96.656C186.364 96.656 185.125 99.1698 182.967 99.6309C182.967 99.6309 185.612 97.9977 186.043 96.534L184.557 96.1056C184.557 96.1056 183.303 98.5362 181.505 98.908C181.505 98.908 184.37 96.7125 184.213 96.0283C184.213 96.0283 182.828 95.7159 182.43 95.8111C182.43 95.8111 181.488 97.5336 180.424 97.6585C180.424 97.6585 182.183 95.9866 182.037 95.7665C182.037 95.7665 180.126 95.8409 179.176 96.3912C180.024 95.8411 181.001 95.5231 182.011 95.469C181.559 95.0409 180.992 94.7544 180.379 94.6449C180.379 94.6449 181.386 94.1184 182.459 95.4571C182.459 95.4571 183.945 95.4571 184.15 95.6058C184.15 95.6058 183.259 94.1184 182.281 93.5621C182.281 93.5621 183.678 93.6811 184.545 95.707L186.046 96.1056C186.046 96.1056 184.973 94.0976 184.138 93.5234C184.138 93.5234 185.544 93.8625 186.415 96.2395L187.817 96.8345C187.817 96.8345 187.027 95.0347 186.233 94.1927C186.233 94.1927 187.469 94.7877 188.209 97.0219L189.101 97.5366C189.101 97.5366 188.507 96.2306 188.296 95.8706C188.085 95.5106 188.168 95.4273 188.168 95.4273C188.811 96.0632 189.265 96.8656 189.478 97.7448C189.478 97.7448 191.255 98.9289 191.336 98.8277Z" fill="#BBBBBB"/>
<path d="M231.236 49.9137C231.236 49.9137 225.462 40.1588 219.646 45.7101C219.646 45.7101 218.339 46.2753 218.523 47.6854C218.523 47.6854 219.019 47.3701 219.495 48.4262C219.665 48.8016 219.879 49.1552 220.134 49.4793C220.475 49.918 220.951 50.2317 221.489 50.3718V50.3718C221.489 50.3718 224.357 52.2698 229.352 50.3718C229.352 50.3718 230.802 50.4938 231.022 50.3004L229.278 49.1759C229.278 49.1759 228.505 50.4878 227.269 50.705C227.269 50.705 229.281 49.2681 229.028 48.9974C228.974 48.9409 228.077 48.4411 228.077 48.4411C228.077 48.4411 226.719 50.7169 224.808 50.9936C224.808 50.9936 227.435 49.6013 227.741 48.2507L226.339 47.5902C226.339 47.5902 225.022 50.0684 222.85 50.464C222.85 50.464 225.545 48.9141 226.021 47.4653L224.553 46.9893C224.553 46.9893 223.221 49.3693 221.415 49.6965C221.415 49.6965 224.345 47.5902 224.208 46.903C224.208 46.903 222.835 46.546 222.425 46.6293C222.425 46.6293 221.429 48.3221 220.363 48.4143C220.363 48.4143 222.172 46.8019 222.036 46.5758C222.036 46.5758 220.122 46.5907 219.156 47.1113C220.021 46.5888 221.008 46.3017 222.018 46.2783C221.579 45.836 221.02 45.532 220.41 45.4036C220.41 45.4036 221.435 44.9068 222.49 46.2783C222.49 46.2783 223.976 46.3289 224.175 46.4806C224.175 46.4806 223.334 44.9931 222.371 44.3803C222.371 44.3803 223.762 44.5409 224.568 46.5936L226.053 47.0399C226.053 47.0399 225.046 44.9991 224.226 44.3981C224.226 44.3981 225.622 44.7819 226.419 47.1827L227.801 47.8282C227.801 47.8282 227.067 46.0046 226.315 45.1508C226.315 45.1508 227.53 45.7844 228.205 48.0394L229.076 48.5809C229.076 48.5809 228.517 47.257 228.321 46.8911C228.125 46.5252 228.208 46.4449 228.208 46.4449C228.831 47.1003 229.26 47.916 229.447 48.801C229.447 48.801 231.15 50.0118 231.236 49.9137Z" fill="#BBBBBB"/>
<path d="M194.705 70.426C194.705 70.426 195.003 59.0914 187.137 60.689C187.137 60.689 185.728 60.4718 185.134 61.7629C185.134 61.7629 185.728 61.7629 185.562 62.9083C185.507 63.3167 185.501 63.7301 185.544 64.1399C185.598 64.6958 185.833 65.2185 186.213 65.6274C186.213 65.6274 187.63 68.763 192.863 69.828C192.863 69.828 194.025 70.7056 194.316 70.658L193.425 68.7778C193.425 68.7778 192.073 69.474 190.911 69.001C190.911 69.001 193.377 68.8552 193.309 68.4922C193.309 68.4179 192.798 67.5135 192.798 67.5135C192.798 67.5135 190.438 68.7183 188.67 67.927C188.67 67.927 191.642 68.1501 192.613 67.1714L191.784 65.8535C191.784 65.8535 189.354 67.2457 187.303 66.4247C187.303 66.4247 190.408 66.5496 191.585 65.5768L190.596 64.3868C190.596 64.3868 188.198 65.7017 186.498 65.0056C186.498 65.0056 190.099 64.7884 190.361 64.131C190.361 64.131 189.386 63.0987 188.994 62.941C188.994 62.941 187.253 63.8335 186.302 63.3515C186.302 63.3515 188.679 62.9529 188.694 62.6881C188.694 62.6881 187.068 61.6796 185.972 61.6052C186.983 61.6233 187.972 61.9064 188.839 62.4263C188.704 61.8183 188.394 61.263 187.948 60.8288C187.948 60.8288 189.08 60.9567 189.235 62.6733C189.235 62.6733 190.474 63.5122 190.554 63.7442C190.554 63.7442 190.64 62.0277 190.144 61.0043C190.144 61.0043 191.238 61.8819 190.827 64.0477L191.847 65.2198C191.847 65.2198 192.079 62.9529 191.707 62.0098C191.707 62.0098 192.682 63.0778 192.082 65.5352L192.905 66.8174C192.905 66.8174 193.255 64.8807 193.068 63.7413C193.068 63.7413 193.758 64.9312 193.128 67.1952L193.579 68.1174C193.579 68.1174 193.808 66.6984 193.838 66.2848C193.867 65.8713 193.98 65.8445 193.98 65.8445C194.159 66.732 194.088 67.6518 193.775 68.5012C193.775 68.5012 194.575 70.4646 194.705 70.426Z" fill="#BBBBBB"/>
<path opacity="0.1" d="M207.709 214.449C212.129 214.449 215.712 213.843 215.712 213.095C215.712 212.348 212.129 211.742 207.709 211.742C203.29 211.742 199.707 212.348 199.707 213.095C199.707 213.843 203.29 214.449 207.709 214.449Z" fill="#BBBBBB"/>
<path opacity="0.1" d="M178.537 235C182.957 235 186.539 234.394 186.539 233.646C186.539 232.899 182.957 232.293 178.537 232.293C174.117 232.293 170.534 232.899 170.534 233.646C170.534 234.394 174.117 235 178.537 235Z" fill="#BBBBBB"/>
<path opacity="0.1" d="M27.6779 224.472C32.0977 224.472 35.6806 223.866 35.6806 223.118C35.6806 222.371 32.0977 221.765 27.6779 221.765C23.2582 221.765 19.6753 222.371 19.6753 223.118C19.6753 223.866 23.2582 224.472 27.6779 224.472Z" fill="#BBBBBB"/>
<path opacity="0.1" d="M239.236 233.646C243.656 233.646 247.238 233.04 247.238 232.293C247.238 231.545 243.656 230.939 239.236 230.939C234.816 230.939 231.233 231.545 231.233 232.293C231.233 233.04 234.816 233.646 239.236 233.646Z" fill="#BBBBBB"/>
<path d="M247.568 217.141C254.167 217.141 259.517 216.236 259.517 215.118C259.517 214.001 254.167 213.095 247.568 213.095C240.969 213.095 235.619 214.001 235.619 215.118C235.619 216.236 240.969 217.141 247.568 217.141Z" fill="#BBBBBB"/>
<path d="M252.522 211.807C253.067 211.363 253.464 210.764 253.66 210.088C253.809 209.403 253.517 208.585 252.867 208.335C252.136 208.056 251.354 208.562 250.76 209.073C250.165 209.585 249.491 210.171 248.715 210.064C249.113 209.702 249.411 209.243 249.58 208.731C249.749 208.22 249.782 207.674 249.678 207.145C249.644 206.927 249.552 206.721 249.411 206.55C249.003 206.116 248.269 206.304 247.782 206.646C246.237 207.735 245.806 209.835 245.797 211.727C245.642 211.046 245.773 210.335 245.77 209.644C245.767 208.954 245.574 208.157 244.983 207.794C244.62 207.591 244.21 207.489 243.794 207.497C243.099 207.473 242.323 207.541 241.851 208.05C241.256 208.681 241.414 209.743 241.925 210.43C242.436 211.117 243.218 211.56 243.937 212.042C244.512 212.386 245.004 212.855 245.375 213.414C245.417 213.492 245.452 213.573 245.479 213.658H249.835C250.811 213.166 251.715 212.543 252.522 211.807V211.807Z" fill="#BBBBBB"/>
<path d="M22.3052 216.826C22.3052 216.826 26.8667 216.686 28.2485 215.704C29.6303 214.723 35.2705 213.554 35.6122 215.127C35.954 216.701 42.4708 222.948 37.318 222.99C32.1651 223.032 25.3452 222.187 23.9723 221.348C22.5994 220.509 22.3052 216.826 22.3052 216.826Z" fill="#A8A8A8"/>
<path opacity="0.2" d="M37.4041 222.443C32.2513 222.484 25.4314 221.639 24.0585 220.801C23.0124 220.164 22.5964 217.876 22.4567 216.82H22.3052C22.3052 216.82 22.6023 220.506 23.9663 221.342C25.3303 222.178 32.1592 223.026 37.312 222.984C38.7978 222.984 39.3119 222.443 39.2852 221.657C39.0772 222.136 38.5096 222.434 37.4041 222.443Z" fill="black"/>
</g>
<defs>
<linearGradient id="paint0_linear" x1="66.2649" y1="128.94" x2="159.019" y2="128.94" gradientUnits="userSpaceOnUse">
<stop stop-color="#808080" stop-opacity="0.25"/>
<stop offset="0.54" stop-color="#808080" stop-opacity="0.12"/>
<stop offset="1" stop-color="#808080" stop-opacity="0.1"/>
</linearGradient>
<clipPath id="clip0">
<rect width="300" height="235" fill="white"/>
</clipPath>
</defs>
</svg>
