<svg width="24" height="24" viewBox="0 0 24 24" fill="none" xmlns="http://www.w3.org/2000/svg">
<path d="M13.4788 9.88316C11.8528 9.27916 10.9668 8.81616 10.9668 8.08016C10.9668 7.45816 11.4778 7.10316 12.3898 7.10316C14.0568 7.10316 15.7688 7.74516 16.9478 8.32316L17.6138 4.21216C16.6788 3.76616 14.7668 3.03516 12.1238 3.03516C10.2538 3.03516 8.69884 3.52416 7.58784 4.43616C6.43284 5.39016 5.83084 6.77016 5.83084 8.43616C5.83084 11.4592 7.67784 12.7482 10.6778 13.8392C12.6138 14.5272 13.2568 15.0172 13.2568 15.7732C13.2568 16.5052 12.6278 16.9282 11.4948 16.9282C10.0918 16.9282 7.77884 16.2392 6.26384 15.3502L5.58984 19.5072C6.89384 20.2392 9.29484 20.9952 11.7868 20.9952C13.7628 20.9952 15.4108 20.5282 16.5218 19.6392C17.7668 18.6622 18.4118 17.2172 18.4118 15.3502C18.4118 12.2592 16.5228 10.9702 13.4768 9.88216H13.4788V9.88316Z" fill="white"/>
</svg>
