<svg width="24" height="24" viewBox="0 0 24 24" fill="none" xmlns="http://www.w3.org/2000/svg">
<path fill-rule="evenodd" clip-rule="evenodd" d="M17.781 6.21895C17.8508 6.28862 17.9062 6.37138 17.944 6.4625C17.9818 6.55362 18.0013 6.6513 18.0013 6.74995C18.0013 6.8486 17.9818 6.94628 17.944 7.0374C17.9062 7.12852 17.8508 7.21128 17.781 7.28095L7.28097 17.7809C7.14014 17.9218 6.94913 18.0009 6.74997 18.0009C6.55081 18.0009 6.3598 17.9218 6.21897 17.7809C6.07814 17.6401 5.99902 17.4491 5.99902 17.2499C5.99902 17.0508 6.07814 16.8598 6.21897 16.7189L16.719 6.21895C16.7886 6.14911 16.8714 6.09369 16.9625 6.05588C17.0536 6.01807 17.1513 5.99861 17.25 5.99861C17.3486 5.99861 17.4463 6.01807 17.5374 6.05588C17.6285 6.09369 17.7113 6.14911 17.781 6.21895Z" fill="#999999"/>
<path fill-rule="evenodd" clip-rule="evenodd" d="M6.21912 6.21895C6.14928 6.28862 6.09386 6.37138 6.05605 6.4625C6.01824 6.55362 5.99878 6.6513 5.99878 6.74995C5.99878 6.8486 6.01824 6.94628 6.05605 7.0374C6.09386 7.12852 6.14928 7.21128 6.21912 7.28095L16.7191 17.7809C16.8599 17.9218 17.051 18.0009 17.2501 18.0009C17.4493 18.0009 17.6403 17.9218 17.7811 17.7809C17.9219 17.6401 18.0011 17.4491 18.0011 17.2499C18.0011 17.0508 17.9219 16.8598 17.7811 16.7189L7.28112 6.21895C7.21145 6.14911 7.12869 6.09369 7.03757 6.05588C6.94645 6.01807 6.84877 5.99861 6.75012 5.99861C6.65147 5.99861 6.55379 6.01807 6.46267 6.05588C6.37155 6.09369 6.28879 6.14911 6.21912 6.21895Z" fill="#999999"/>
</svg>
